<svg width="17" height="17" viewBox="0 0 17 17" fill="none" xmlns="http://www.w3.org/2000/svg">
<path d="M11.4839 0H16.4935C16.6899 0 16.8491 0.15923 16.8491 0.35565V5.36526C16.8491 5.68211 16.466 5.84079 16.242 5.61674L14.5217 3.8964L11.7404 6.67769C11.5668 6.8513 11.2853 6.8513 11.1117 6.67769L10.1686 5.73463C9.99499 5.56102 9.99499 5.27953 10.1686 5.10592L12.9499 2.32464L11.2324 0.607132C11.0083 0.383085 11.167 0 11.4839 0Z" fill="white"/>
<path d="M6.21438 16.0042H1.20477C1.00835 16.0042 0.849121 15.845 0.849121 15.6486V10.639C0.849121 10.3221 1.23221 10.1635 1.45625 10.3875L3.17676 12.108L5.95822 9.32655C6.13183 9.15294 6.41331 9.15294 6.58692 9.32655L7.52998 10.2696C7.7036 10.4432 7.7036 10.7247 7.52998 10.8983L4.74853 13.6798L6.46586 15.3971C6.68991 15.6212 6.53123 16.0042 6.21438 16.0042Z" fill="white"/>
</svg>
