<svg width="17" height="17" viewBox="0 0 17 17" fill="none" xmlns="http://www.w3.org/2000/svg">
<path d="M10.6393 0H15.6489C15.8453 0 16.0046 0.15923 16.0046 0.35565V5.36526C16.0046 5.68211 15.6215 5.84079 15.3974 5.61674L13.6771 3.8964L10.8958 6.67769C10.7222 6.8513 10.4407 6.8513 10.2671 6.67769L9.32406 5.73463C9.15045 5.56102 9.15045 5.27953 9.32406 5.10592L12.1053 2.32464L10.3878 0.607132C10.1638 0.383085 10.3225 0 10.6393 0Z" fill="#D9FF42"/>
<path d="M5.36983 16.0042H0.360227C0.163808 16.0042 0.00457764 15.845 0.00457764 15.6486V10.639C0.00457764 10.3221 0.387663 10.1635 0.61171 10.3875L2.33222 12.108L5.11367 9.32655C5.28729 9.15294 5.56877 9.15294 5.74238 9.32655L6.68544 10.2696C6.85905 10.4432 6.85905 10.7247 6.68544 10.8983L3.90398 13.6798L5.62132 15.3971C5.84536 15.6212 5.68668 16.0042 5.36983 16.0042Z" fill="#D9FF42"/>
</svg>
