<svg width="17" height="17" viewBox="0 0 17 17" fill="none" xmlns="http://www.w3.org/2000/svg">
<path d="M1.45039 9.19635H6.46C6.65642 9.19635 6.81565 9.35558 6.81565 9.552V14.5616C6.81565 14.8785 6.43256 15.0371 6.20852 14.8131L4.48801 13.0926L1.70655 15.874C1.53294 16.0476 1.25146 16.0476 1.07785 15.874L0.134787 14.931C-0.0388254 14.7574 -0.0388254 14.4759 0.134787 14.3023L2.91624 11.5208L1.19891 9.80348C0.974863 9.57944 1.13354 9.19635 1.45039 9.19635Z" fill="white"/>
<path d="M14.5591 6.8079H9.5495C9.35308 6.8079 9.19385 6.64867 9.19385 6.45225V1.44264C9.19385 1.12579 9.57693 0.96711 9.80098 1.19116L11.5213 2.91149L14.3026 0.130209C14.4762 -0.0434031 14.7577 -0.0434031 14.9313 0.130209L15.8744 1.07327C16.048 1.24688 16.048 1.52836 15.8744 1.70197L13.0931 4.48326L14.8106 6.20076C15.0346 6.42481 14.876 6.8079 14.5591 6.8079Z" fill="white"/>
</svg>
