<svg width="93" height="145" viewBox="0 0 93 145" fill="none" xmlns="http://www.w3.org/2000/svg">
<path d="M92.013 0L87.9648 1.9481C87.9648 1.9481 87.8067 4.46808 87.6691 6.85668C86.4644 23.5838 86.2927 30.7082 86.334 35.8846C86.3891 49.2043 87.8761 64.6088 87.8761 64.6088L88.0899 67.2251L92.013 65.4625C92.013 65.4625 92.068 2.65706 92.013 0ZM82.8721 4.39903L79.031 6.0164C79.031 6.0164 78.8717 7.9786 78.7271 10.3603C77.3504 27.1562 77.2274 35.7263 77.1998 39.2713C77.0966 51.7237 78.8522 68.9177 78.8522 68.9177L79.1197 71.3821L83.6559 69.317L83.8898 65.3186C84.5782 57.0996 84.5786 57.1341 84.8471 37.7843C85.0191 26.1373 83.1742 8.28728 83.1329 7.70906C83.0503 6.5182 82.8721 4.39903 82.8721 4.39903ZM73.7164 8.68647L69.8269 10.4706C69.8269 10.4706 69.6757 12.4047 69.5311 14.7795C68.1544 31.5823 68.0302 40.1515 67.9958 43.7241C67.8994 56.1627 69.6548 73.3719 69.6548 73.3719L69.9102 75.7125L74.4599 73.6475L74.6871 69.7714C74.6871 69.7714 75.3757 61.5672 75.651 42.1968C75.8231 30.5498 73.9714 12.6996 73.9301 12.1283C73.8475 10.9374 73.7164 8.68647 73.7164 8.68647ZM64.6777 12.9201L60.6725 14.6209C60.6508 15.9857 60.5543 17.3483 60.3835 18.7026C59.3945 28.4551 58.9072 38.252 58.9234 48.0546C58.772 60.3486 60.651 77.6539 60.651 77.6539L60.8782 79.9946L65.0084 77.9981L65.3257 74.2323C65.3257 74.2323 66.3435 65.2841 66.5706 45.7623C66.6808 35.7054 65.0221 18.063 64.9533 16.2113C64.8982 15.0893 64.6777 12.9201 64.6777 12.9201ZM55.1106 17.3326L52.1366 18.5372L51.7306 22.5988C50.051 38.6651 49.8925 47.9997 49.8444 51.7169C49.6998 64.0109 51.9094 81.4802 51.9094 81.4802L52.1434 84.0696L55.8944 82.2855L56.1149 78.4176C56.1149 78.4176 57.0094 69.3038 57.2778 49.7889C57.4292 39.4636 55.5295 22.1375 55.323 19.8521C55.2266 18.7232 55.1106 17.3326 55.1106 17.3326ZM45.694 21.5797L43.7177 22.4334C43.7177 22.4334 43.7245 22.8195 43.7245 24.4165C42.6369 32.8282 40.7031 42.9608 40.4897 55.3926C40.2488 69.0014 43.0979 85.4531 43.0979 85.4531L43.3736 88.0479L45.6242 86.9669L45.9898 82.8717C47.6832 67.7279 48.0539 66.0407 48.2122 53.5332C48.3637 43.0908 46.5613 31.8712 45.7559 23.8518C45.6852 23.0967 45.6646 22.3376 45.6941 21.5797H45.694ZM36.6553 25.8201L34.6588 26.729C34.6588 26.729 34.9274 37.715 34.3079 42.3958C32.2979 53.5265 31.5549 57.409 31.8234 62.6956C32.0798 67.4232 32.6824 72.1257 33.6263 76.7652C34.0668 79.7389 34.2111 81.5837 34.2111 81.5837L34.2945 92.3151L36.2291 91.3592C36.2291 91.3592 36.2278 82.4101 36.2829 81.9145C36.338 81.4189 36.3381 80.9027 36.4483 79.6155C36.7856 75.6781 38.0384 67.6591 38.5134 61.1266C39.0778 52.7149 37.2608 44.7427 36.896 40.8053C36.7032 38.6921 36.5658 35.8632 36.6553 25.8201H36.6553ZM27.6932 30.0672L25.8003 30.8725C25.8622 43.6347 25.8624 47.2896 25.8487 48.8935C24.0039 58.4617 23.652 58.965 23.356 63.6596C23.1289 67.3492 23.7418 69.9915 24.3751 73.1648C24.9327 75.9182 25.5999 78.8855 25.5999 78.8855L25.5381 96.4049L27.6032 95.406L27.6583 78.0183C27.6583 78.0183 29.3865 68.6574 29.6481 63.302C29.9578 56.8658 27.6932 49.982 27.6932 48.3988V30.0672ZM18.8199 34.2323L16.9887 35.0027V63.3423C16.9887 64.0306 15.6668 65.8277 15.3364 66.936C15.006 68.0443 14.5171 69.5521 16.4926 70.9357C17.1259 71.3832 16.9337 72.8147 16.9887 73.7577C17.0438 74.7008 16.9887 100.315 16.9887 100.315L18.8683 99.516V71.0997C18.8683 70.2462 21.6211 67.8104 20.6712 65.2084C20.3545 64.3479 19.1778 63.3223 19.1641 63.1433C19.0057 61.8079 18.8199 34.2323 18.8199 34.2323ZM10.1805 38.2173L8.47436 38.9473V104.211L10.1952 103.494L10.1805 38.2173ZM2.20251 41.9347L0.468169 42.658L0.481613 107.927L2.20923 107.191L2.20251 41.9347ZM32.7457 114.632C27.6656 114.632 21.5533 117.117 21.6634 122.837C21.7735 128.557 27.7344 130.781 32.7457 130.781C37.7569 130.781 43.2219 128.557 43.3251 122.837C43.4284 117.117 37.9221 114.632 32.7457 114.632ZM8.33184 114.745C6.45174 114.745 4.44876 115.033 2.69861 115.823C-1.06671 117.516 -0.00642145 120.847 0.681936 121.694C1.50108 122.795 2.93975 123.332 4.81208 123.759C7.4416 124.358 10.9794 124.572 13.2028 124.868C15.2747 125.137 15.1093 127.154 13.9597 127.787C12.0254 128.84 7.1732 128.777 4.52302 127.304C2.21014 126.031 2.45795 124.819 2.45795 124.496H0.39288V130.003H2.68516V129.528C2.63009 128.736 3.73787 129.342 4.42622 129.583C8.21219 130.891 13.5467 131.125 16.5962 129.129C19.9898 126.905 18.8892 122.734 15.0138 121.482C12.0745 120.525 7.32469 120.683 4.92232 119.946C3.05688 119.375 3.61418 116.662 9.12103 116.876C14.5178 117.082 15.8325 119.574 15.8325 120.476H17.6905V115.452H15.6954C15.9019 116.402 15.3644 116.519 14.9721 116.14C14.2579 115.542 11.4653 114.744 8.33184 114.745V114.745ZM45.5004 115.403V117.338H47.3316C48.3435 117.372 48.344 117.861 48.344 118.439V127.284C48.3164 127.718 48.2061 128.125 47.4351 128.18H45.5354V129.969H54.1049V128.103H52.1568C51.7231 128.124 51.2278 128.179 51.2278 127.216L51.2345 119.933L62.6543 129.969H65.366V118.19C65.366 117.757 65.5863 117.283 66.0544 117.283H68.0442V115.403H59.7503V117.261H61.58C62.0068 117.316 62.5171 117.316 62.5171 118.356V124.462L52.7349 115.403H45.5004ZM69.9304 115.417V117.323H71.5411C72.1863 117.297 72.8045 117.584 73.2001 118.095C73.2552 118.177 78.9691 124.455 78.9691 124.455V127.752C78.9691 127.972 78.9276 128.096 78.5214 128.096H76.1539V129.962H85.9213V128.096H83.7876C83.3746 128.096 83.3735 128.103 83.3735 127.752V124.482C83.3735 124.482 88.5292 118.383 88.9422 117.963C89.2187 117.601 89.6322 117.37 90.085 117.323H91.9713V115.417H83.8979V117.323H85.1227C85.5288 117.323 85.591 117.888 85.3983 118.15L82.0385 122.108C82.0385 122.108 79.0998 118.583 78.6868 118.177C78.2738 117.771 78.5768 117.323 78.797 117.323H79.8081V115.417H69.9304ZM32.6489 116.8C36.1457 116.8 38.7957 118.949 38.7957 122.735C38.7819 126.493 36.0356 128.565 32.6489 128.661C29.2622 128.757 26.5157 126.521 26.5088 122.735C26.5019 118.949 29.152 116.8 32.6489 116.8ZM24.4303 134.781C21.7732 134.733 18.5376 136.178 18.5927 139.847C18.6477 143.516 22.0274 144.665 24.7395 144.665C27.6099 144.665 29.1933 142.827 29.3792 141.451L28.3399 141.478C27.9544 143.178 26.0476 143.543 24.843 143.543C22.8078 143.52 21.1707 141.862 21.174 139.827C21.174 137.837 22.2271 136.225 24.3335 135.971C26.3297 135.716 28.202 136.742 28.2915 138.353H29.2488V135.282H28.2095C28.3196 135.957 28.0239 135.944 27.7968 135.71C26.7883 135.08 25.6187 134.758 24.4303 134.781V134.781ZM86.0745 135C85.9921 135 85.9096 135.002 85.8272 135.005C84.8729 135.042 83.9357 135.27 83.071 135.675C81.6885 136.27 81.1811 137.972 82.0116 139.227C82.5559 139.903 83.3352 140.348 84.1937 140.473C85.647 140.777 87.1147 141.007 88.5913 141.162C89.9405 141.368 89.679 142.566 88.9907 142.979C87.5451 143.888 85.8177 143.763 84.0417 142.627C82.8509 141.863 82.9675 141.127 82.9675 140.934H81.8947V144.273H83.0993V143.984C83.0717 143.474 83.65 143.846 84.0148 143.984C85.9973 144.782 88.7919 144.926 90.3889 143.715C92.1717 142.366 91.6271 139.854 89.562 139.09C88.0132 138.519 85.4942 138.718 84.2689 138.161C83.1745 137.665 83.6079 136.089 86.4577 136.164C89.3075 136.24 89.9963 137.94 89.9963 138.484H90.967V135.373H89.921C90.0243 136.013 89.8031 136.012 89.5002 135.861C88.4484 135.291 87.2705 134.995 86.0745 135V135ZM12.4593 135.242V136.405H13.4717C13.864 136.405 13.9664 136.626 13.9664 136.963V142.552C13.9664 142.896 13.864 143.048 13.4717 143.048H12.4593V144.211H17.7121V143.055H16.6862C16.287 143.055 16.2036 142.896 16.2036 142.552L16.2385 136.963C16.2385 136.626 16.3206 136.398 16.7199 136.398H17.7457V135.242H12.4593ZM42.747 135.249V136.412H43.7661C44.1585 136.412 44.2541 136.632 44.2541 136.97V141.361C44.2541 144.121 46.5057 144.617 48.6465 144.617C50.8285 144.617 52.9144 144.101 52.8868 141.499V137.369C52.88 136.688 53.1 136.432 53.3547 136.432H54.3738V135.276H49.8928V136.44H50.9038C51.303 136.44 51.3999 136.659 51.3999 136.997V141.519C51.3999 142.49 51.159 143.584 48.6465 143.584C46.4024 143.584 46.5195 141.822 46.5195 141.519V136.97C46.5195 136.626 46.6164 136.405 47.0156 136.405H48.0334V135.249H42.747ZM30.8392 135.269V138.669L31.9336 138.684C31.9336 136.35 32.0505 136.501 32.9729 136.419H35.038V142.614C35.038 142.958 34.9342 143.178 34.5419 143.178H33.5228V144.273H38.8172V143.165H37.7981C37.4057 143.165 37.3154 142.945 37.3154 142.6V136.405H39.3805C40.2066 136.501 40.4211 136.267 40.4211 138.669H41.4873V135.269L30.8392 135.269ZM0.227512 135.276V136.46H1.19148C1.58385 136.46 1.68624 136.64 1.68624 136.97V142.559C1.68624 142.896 1.59745 143.055 1.1982 143.055H0.179112V144.218H5.49371V143.055H4.45446C4.06209 143.055 3.96508 142.903 3.96508 142.566V140.363H7.16621C10.0711 140.363 11.2412 139.612 11.2412 137.747C11.2412 135.882 10.4014 135.276 7.79944 135.276H0.227512ZM55.612 135.297V136.405H56.576C56.9684 136.405 57.0654 136.653 57.0654 136.99V142.572C57.0654 142.916 56.9818 143.075 56.5895 143.075H55.565V144.273H60.8581V143.097H59.839C59.4466 143.097 59.3509 142.944 59.3509 142.607V140.405H61.9592C62.9779 140.405 63.5214 140.673 63.5214 141.361V142.345C63.5214 144.128 64.658 144.5 65.8419 144.5C67.2462 144.5 67.6314 144.039 67.6314 142.435V141.747H66.6809V142.298C66.7015 142.787 66.7302 143.302 66.2896 143.302C65.8491 143.302 65.807 142.924 65.807 142.676V141.382C65.7588 140.295 65.1329 140.109 64.238 139.889C65.2706 139.696 66.4683 139.241 66.4752 137.809C66.4752 136.122 65.6285 135.297 63.0334 135.297H55.612ZM68.8011 135.297V136.46H69.8202C70.2125 136.46 70.3095 136.688 70.3095 137.025V142.607C70.3095 142.944 70.2125 143.11 69.8202 143.11H68.8011V144.273H79.4639V140.818H78.4314C78.4314 142.559 78.2728 142.992 77.3504 143.082H72.5938V140.26H74.804C75.1 140.26 75.2853 140.37 75.2853 140.831V141.795H76.2708V137.59H75.2853V138.512C75.2853 138.987 75.1 139.09 74.804 139.09H72.5938V136.392H77.3504C78.2728 136.481 78.4314 136.963 78.4314 138.691H79.4639V135.297H68.8011ZM3.96508 136.412H7.00756C8.01945 136.412 8.70829 136.729 8.70829 137.789C8.70829 138.849 8.01897 139.165 6.85564 139.165H3.96508V136.412ZM62.4956 136.437C62.5171 136.437 62.5387 136.438 62.5601 136.439C63.3147 136.465 63.9211 137.069 63.949 137.824C63.949 138.684 63.3498 139.2 62.2415 139.2H59.3509V136.447H62.3518C62.3995 136.441 62.4475 136.438 62.4956 136.438V136.437Z" fill="#333333"/>
</svg>
