<svg width="66" height="25" viewBox="0 0 66 25" fill="none" xmlns="http://www.w3.org/2000/svg">
<path d="M0.574 19V0.799999H3.902V13.722L13.678 0.799999H16.824V19H13.496V6.104L3.72 19H0.574ZM37.2245 17.492V7.872H31.8945L31.8165 10.108C31.7818 10.9053 31.7298 11.6767 31.6605 12.422C31.5911 13.15 31.4785 13.826 31.3225 14.45C31.1665 15.0567 30.9411 15.5593 30.6465 15.958C30.3518 16.3567 29.9618 16.6167 29.4765 16.738L26.2525 16.244C26.7725 16.244 27.1885 16.0793 27.5005 15.75C27.8298 15.4033 28.0811 14.9353 28.2545 14.346C28.4451 13.7393 28.5838 13.0547 28.6705 12.292C28.7571 11.512 28.8178 10.706 28.8525 9.874L29.0345 5.116H40.4745V17.492H37.2245ZM25.7585 22.094V16.244H42.5285V22.094H39.4865V19H28.7745V22.094H25.7585ZM52.6071 19.182C51.4804 19.182 50.4491 18.922 49.5131 18.402C48.5944 17.882 47.8578 17.102 47.3031 16.062C46.7658 15.0047 46.4971 13.67 46.4971 12.058C46.4971 10.4287 46.7571 9.094 47.2771 8.054C47.8144 7.014 48.5424 6.24267 49.4611 5.74C50.3798 5.22 51.4284 4.96 52.6071 4.96C53.9764 4.96 55.1811 5.25467 56.2211 5.844C57.2784 6.43333 58.1104 7.25667 58.7171 8.314C59.3411 9.37133 59.6531 10.6193 59.6531 12.058C59.6531 13.4967 59.3411 14.7533 58.7171 15.828C58.1104 16.8853 57.2784 17.7087 56.2211 18.298C55.1811 18.8873 53.9764 19.182 52.6071 19.182ZM44.9111 24.044V5.116H48.0051V8.392L47.9011 12.084L48.1611 15.776V24.044H44.9111ZM52.2431 16.4C53.0231 16.4 53.7164 16.2267 54.3231 15.88C54.9471 15.5333 55.4411 15.0307 55.8051 14.372C56.1691 13.7133 56.3511 12.942 56.3511 12.058C56.3511 11.1567 56.1691 10.3853 55.8051 9.744C55.4411 9.08533 54.9471 8.58267 54.3231 8.236C53.7164 7.88933 53.0231 7.716 52.2431 7.716C51.4631 7.716 50.7611 7.88933 50.1371 8.236C49.5131 8.58267 49.0191 9.08533 48.6551 9.744C48.2911 10.3853 48.1091 11.1567 48.1091 12.058C48.1091 12.942 48.2911 13.7133 48.6551 14.372C49.0191 15.0307 49.5131 15.5333 50.1371 15.88C50.7611 16.2267 51.4631 16.4 52.2431 16.4ZM63.1272 19.182C62.5378 19.182 62.0352 18.9827 61.6192 18.584C61.2032 18.168 60.9952 17.648 60.9952 17.024C60.9952 16.3653 61.2032 15.8453 61.6192 15.464C62.0352 15.0653 62.5378 14.866 63.1272 14.866C63.7165 14.866 64.2192 15.0653 64.6352 15.464C65.0512 15.8453 65.2592 16.3653 65.2592 17.024C65.2592 17.648 65.0512 18.168 64.6352 18.584C64.2192 18.9827 63.7165 19.182 63.1272 19.182Z" fill="#444444"/>
</svg>
