<svg width="145" height="118" viewBox="0 0 145 118" fill="none" xmlns="http://www.w3.org/2000/svg">
<path fill-rule="evenodd" clip-rule="evenodd" d="M0.291504 0.151367H144.364V117.396H0.291504V0.151367Z" fill="#333333"/>
<path fill-rule="evenodd" clip-rule="evenodd" d="M73.4987 16.5384C74.8913 16.3157 77.5086 16.4827 79.3449 17.8188C81.3506 19.3219 82.9651 21.8279 82.6852 24.7235C82.2955 28.2308 81.4604 30.4584 78.4534 32.9079C74.7791 35.9149 71.2154 36.0812 69.5453 35.9698C68.3762 35.8585 65.0352 35.1348 63.1981 32.1278C62.029 30.068 62.4187 27.1723 62.7527 25.8919C63.0875 24.6114 65.203 21.2147 67.3741 19.4889C69.5445 17.8196 72.1618 16.7054 73.4987 16.5384ZM0 117.542V112.921L26.7823 109.914C26.7823 109.914 21.2701 107.742 19.934 103.677C18.4866 99.3898 21.939 95.1024 24.7225 94.6029C28.5081 93.8776 33.4644 93.4887 33.4644 93.4887L38.3642 93.9341L144.658 106.128V117.542H0ZM45.4352 91.9856L114.924 83.911L131.182 90.092L131.238 101.283L45.4352 91.9856Z" fill="#050505"/>
<path fill-rule="evenodd" clip-rule="evenodd" d="M144.658 0H126.394L133.8 75.3343C133.8 75.3343 133.634 76.6147 132.743 76.7825C131.852 76.9503 131.684 76.0588 131.684 76.0588L128.4 63.5862L114.869 58.7413L100.782 71.9368L112.475 79.4547L101.227 80.7916L94.8797 76.7261L89.9234 82.0164L79.1225 83.2968L88.5324 73.4972L74.0557 65.1442L67.2066 66.2027C67.2066 66.2027 73.1093 67.9285 75.5023 69.9327C77.8413 71.9368 78.3415 74.0523 77.7856 77.5047C77.2281 80.9571 73.4425 83.6857 73.4425 83.6857L51.3373 86.3587L48.7764 85.0783C48.7764 85.0783 45.4911 83.4081 45.3248 79.8436C45.1578 76.6132 48.7764 71.5471 48.7764 71.5471L43.1529 69.9327V74.9431L31.9058 76.6689V80.5666L42.0395 79.2297V83.7963L32.0729 85.2429L32.1285 88.5291L25.4473 89.4198V73.8289L23.2204 74.1629V70.8783L114.869 54.7307L127.51 59.4642L123.334 42.3137L115.038 39.1954L109.247 48.2156L109.192 53.1154L104.737 54.0062V49.162L100.952 45.3756L96.0511 44.2622C96.0511 44.2622 97.1096 44.931 97.4993 45.153C98.7241 46.1001 99.0581 47.0458 99.0581 48.5496C99.0581 50.6102 96.331 51.7237 96.331 51.7237L100.952 54.7307L96.2753 55.6771L90.985 52.9492L90.9294 56.5686L86.9759 57.2923V46.7156L83.8027 45.7684C83.8027 45.7684 83.8027 53.0629 83.747 55.7358C83.6914 57.7957 81.4638 58.3531 81.4638 58.3531C81.4638 58.3531 76.2307 59.8013 74.3928 59.2439C72.6105 58.7428 72.6105 56.9057 72.6105 56.9057V49.4999L70.993 48.4414L70.9373 51.6711L67.8754 52.3948L67.9311 60.7462L64.089 61.4715L64.1447 53.2863L61.0264 53.843L60.9707 51.7832L59.0214 50.9474V62.3065L55.3464 62.9738L50.2796 58.5758L50.3352 63.8653L46.7715 64.5341L46.8272 55.0121L44.0436 54.177V56.7379L39.3665 57.9627V59.9668L43.4313 59.0761V61.415L39.3665 62.3058V64.1437L43.9323 63.4184L43.988 65.0344L35.9142 66.4811L35.9698 58.408C35.9698 58.408 35.0234 58.1854 32.5175 57.8513C33.6865 58.6307 33.4082 59.2431 33.4082 59.2431L31.571 61.081C31.571 61.081 30.8466 60.1338 29.0651 60.5235C27.6733 60.8011 27.0609 62.138 27.0609 63.4184C27.1166 64.7553 27.8403 66.4254 29.6218 66.1471C31.1806 65.8695 31.96 64.3091 31.96 64.3091L34.1319 65.4233L33.0185 67.0378C33.0185 67.0378 27.2279 68.1504 26.2815 68.2626C24.3323 67.5388 23.8869 65.8687 23.8312 64.3091C23.6642 61.3021 25.6127 59.2423 25.6127 59.2423L23.4416 58.0176V55.6794L114.924 35.4121L122.441 38.307L119.434 26.2249L113.253 24.1643L113.198 32.9618L110.526 33.5185V27.2826C110.469 25.1114 109.969 24.6661 109.189 24.6096C107.853 24.554 107.464 25.6674 107.464 27.5053V34.2422L104.345 34.9103L104.29 20.6005L86.3048 13.0278C86.3048 13.0278 87.1955 13.8628 88.1984 15.0884C90.4245 17.817 91.483 20.7676 90.6479 25.9457C89.8685 31.0682 86.9721 34.6319 86.9721 34.6319C85.08 37.8608 80.5127 40.9235 80.5127 40.9235C80.5127 40.9235 69.544 43.5408 66.5378 43.8192C63.5864 44.0975 59.7444 41.3697 57.8516 39.4761C55.9588 37.5825 54.901 35.133 54.3435 32.7383C53.7868 30.2888 55.4569 23.7738 55.4569 23.7738L51.3922 21.6018C51.3922 21.6018 52.1167 23.1614 52.3943 23.9965C52.6726 24.7759 53.1737 25.8893 52.5056 29.0633C52.1159 31.3458 50.8355 32.7376 50.8355 32.7376L41.3707 44.3767L52.7291 42.2047V46.8262L26.1694 52.7845V49.7775C26.1694 49.7775 42.2057 31.5144 43.1521 30.1783C44.5996 28.1741 45.1563 26.3926 43.3192 24.9444C41.4263 23.4413 39.4214 24.1094 37.3616 25.8352C35.5245 27.3947 34.5773 30.8463 34.5773 30.8463L26.4478 32.1832L28.5076 25.9473C30.8458 20.4351 38.0845 17.9291 41.3699 17.5394C43.207 17.3167 46.214 18.3745 46.214 18.3745L55.958 22.7176C55.958 22.7176 56.292 22.2165 56.7931 21.3258C58.1299 18.8199 64.0875 12.3613 66.2586 11.3035C70.3234 9.35425 74.6101 8.68698 78.1745 9.13234C80.3465 9.4107 85.2455 11.3035 85.2455 11.3035L104.289 19.266L104.233 13.8095L107.518 12.6404L117.095 16.7051L113.142 0.112888L27.7854 0C27.7854 0 13.754 76.6147 13.4757 78.2872C13.253 79.5119 12.6406 80.013 11.3602 79.7338C10.2468 79.4563 10.5251 77.674 10.5251 77.674L13.8654 0H0.000244141V110.914L7.40602 110.023L7.35035 91.427C7.35035 91.427 7.51736 89.9232 8.90991 90.0902C10.1903 90.2023 11.6378 90.3136 12.1945 90.4799C13.0852 90.7575 13.4192 91.4271 13.3643 92.4291V109.133L20.3797 108.243C20.3797 108.243 17.8745 107.296 17.0394 102.785C16.8167 101.394 16.6497 99.2225 18.4868 96.2712C20.324 93.4304 23.8877 92.3178 25.1125 92.15C26.2823 91.9838 115.425 81.2934 115.425 81.2934L131.238 87.585V86.0811C131.238 86.0811 131.238 84.6344 132.686 84.6344C134.746 84.6344 134.914 84.6344 136.027 84.5788C137.865 84.5788 137.697 86.1932 137.697 86.1932L137.641 102.062L144.657 102.785V0H144.658ZM10.747 86.1924C6.6823 85.6914 7.68514 81.6274 7.68514 81.6274L14.9788 82.7965C14.9788 82.7957 14.9788 86.6378 10.747 86.1924ZM134.134 81.9607C131.183 82.5182 130.07 79.5112 130.07 79.5112L136.807 77.9508C136.807 77.9516 137.865 81.2377 134.134 81.9607ZM102.391 24.7782L100.11 25.3349V21.9382L97.3245 22.6062V36.7436L100.11 35.9085V28.1741C101 27.8957 102.391 27.4504 102.391 27.4504V24.7782Z" fill="#050505"/>
<path fill-rule="evenodd" clip-rule="evenodd" d="M76.5598 46.9968L79.7331 48.6112C79.7331 48.6112 79.7887 54.2912 79.7887 55.1255C79.7331 55.9613 79.3434 56.5173 78.2299 56.7399C77.1158 56.9626 76.5598 56.9069 76.5598 55.4031V46.9968ZM91.3698 47.3316C91.3698 47.3316 92.9843 47.1646 93.5418 47.3316C94.0992 47.5542 94.3768 48.0561 94.2655 48.7798C94.1549 49.5035 93.6539 49.7262 93.2085 49.8375C92.8188 50.0045 91.3706 50.228 91.3706 50.228V47.3316H91.3698ZM103.285 41.7629L108.575 42.8771L106.737 45.7163L103.285 41.7629ZM48.9417 52.2314L55.8456 54.4025L55.7907 58.9134L48.9417 52.2314ZM55.3453 73.8912C56.1804 73.2224 59.298 71.7193 61.971 71.5522C65.1442 71.3303 67.6502 71.7757 69.3767 73.1683C71.1025 74.5593 71.2139 76.2294 70.1004 77.6776C69.0427 79.1258 68.1512 79.8495 65.5903 80.7959C63.0851 81.6867 59.4658 81.8529 57.8505 81.4632C55.8464 81.0735 54.5652 80.6282 53.6744 79.5147C52.0043 77.4549 53.6744 75.2273 55.3453 73.8912ZM85.1903 62.6434L98.1624 64.7032L94.2647 68.4888L85.1903 62.6434ZM119.21 25.115L117.372 17.9876L107.572 13.8672V23.3328C107.572 23.3328 108.353 22.0524 110.133 21.8853C111.971 21.7183 112.974 22.9431 112.974 22.9431L119.21 25.115Z" fill="#050505"/>
</svg>
