<svg width="147" height="118" viewBox="0 0 147 118" fill="none" xmlns="http://www.w3.org/2000/svg">
<path d="M122.399 2.83828C119.641 2.41455 115.316 1.90439 108.279 2.28596C85.4229 4.44886 68.0375 13.1848 54.4698 23.3184C67.9532 12.4617 87.4593 0.846132 109.976 0.0387324C125.534 -0.46721 137.448 4.02303 137.278 11.1905C137.278 13.1405 137.362 17.382 136.685 22.3424V22.258C135.838 28.7025 133.717 36.4624 128.544 41.975C119.342 51.7692 95.215 59.995 84.6998 63.3026C74.1847 66.6123 59.7253 71.1468 59.7253 71.1468C59.7253 71.1468 55.5702 72.6309 54.3412 74.583C53.1101 76.533 49.1258 83.6562 41.2373 85.6083C37.4639 86.5401 35.0058 85.309 34.5821 85.1403C33.4374 84.7166 32.2484 81.7041 36.4035 80.7302C40.2613 79.7984 46.7078 78.9067 48.5313 77.5069C51.0758 75.5991 52.2205 72.7595 52.2205 72.7595C52.2205 72.7595 53.323 70.3415 50.5235 70.3837C47.7682 70.4258 37.1245 73.1411 30.8065 76.7016C28.5593 77.9306 23.0066 80.5594 19.8234 78.738C17.6668 77.5069 17.3674 74.623 17.6246 72.3779C17.5403 75.812 20.2956 76.7438 24.2398 75.4305C29.8789 73.5648 50.1061 54.4402 71.4336 46.7245C92.7612 39.0068 101.116 40.2358 116.336 34.3859C125.411 30.8654 128.761 23.6135 130.582 18.8239C131.814 15.6007 128.888 15.0505 128.888 15.0505C120.449 12.8876 109.044 13.0562 99.2478 14.4981C94.7112 15.2191 92.5061 16.1087 88.2225 16.1087C83.943 16.1087 75.5887 15.6871 71.305 17.4663C39.8839 30.2709 22.4564 61.3104 19.1066 67.797L19.6568 66.5259L24.7879 49.9879C24.7879 49.9879 25.3402 47.4877 28.0112 46.6381C29.4953 46.1743 33.2688 45.2826 35.0501 43.3326C40.3077 36.9282 46.0754 31.2469 54.512 24.9711C68.0818 14.8375 85.9331 6.39885 108.787 4.23805C119.344 3.64357 125.238 4.32238 129.564 5.80647C129.564 5.80647 127.743 3.68573 122.399 2.83828Z" fill="#333333"/>
<path d="M49.9642 102.144V104.509H49.1841V102.981H44.1261V96.2516H44.9565V102.144H48.2279V96.2516H49.0583V102.144H49.9642Z" fill="#333333"/>
<path d="M58.0606 102.127V102.961H54.1899V96.2516H57.9539V97.0855H54.9519V99.1462H57.6263V99.9609H54.9519V102.127H58.0606Z" fill="#333333"/>
<path d="M80.5703 116.194V117.541H74.3176V106.703H80.3979V108.05H75.5484V111.378H79.8687V112.694H75.5484V116.194H80.5703Z" fill="#333333"/>
<path d="M67.4793 96.2516V102.961H66.6435V99.9705H63.2833V102.961H62.4474V96.2516H63.2833V99.1366H66.6435V96.2516H67.4793Z" fill="#333333"/>
<path d="M66.3181 106.703V117.541H64.9679V112.71H59.5399V117.541H58.1896V106.703H59.5399V111.363H64.9679V106.703H66.3181Z" fill="#333333"/>
<path d="M76.1239 97.0855H74.2992V102.961H73.5542V97.0855H71.7371V96.2516H76.1239V97.0855Z" fill="#333333"/>
<path d="M51.3415 108.05H48.3939V117.541H47.1903V108.05H44.2551V106.703H51.3415V108.05Z" fill="#333333"/>
<path fill-rule="evenodd" clip-rule="evenodd" d="M82.3747 100.155H81.1935V102.961H80.5107V96.2516H82.3747C82.9622 96.2516 84.1234 96.7677 84.1234 97.7999V98.316C84.1234 99.7353 82.9546 100.155 82.3747 100.155ZM82.3542 97.0855H81.1935V99.3209H82.3542C82.6058 99.3209 83.3492 99.0902 83.3492 98.445V97.9289C83.3492 97.3096 82.6165 97.0855 82.3542 97.0855Z" fill="#333333"/>
<path fill-rule="evenodd" clip-rule="evenodd" d="M34.8799 113.008H32.9718V117.541H31.8688V106.703H34.8799C35.8686 106.703 37.7047 107.536 37.7047 109.204V110.037C37.7047 111.989 35.8686 113.025 34.8799 113.008ZM34.8469 108.049H32.9719V111.661H34.8469C35.2437 111.606 36.4542 111.288 36.4542 110.246V109.412C36.4542 108.412 35.2437 108.087 34.8469 108.049Z" fill="#333333"/>
<path fill-rule="evenodd" clip-rule="evenodd" d="M90.8761 113.008H88.968V117.541H87.8651V106.703H90.8761C91.8177 106.841 93.7009 107.536 93.7009 109.204V110.037C93.7009 111.989 91.8177 112.99 90.8761 113.008ZM90.8431 108.049H88.9681V111.661H90.8431C91.2399 111.606 92.4504 111.288 92.4504 110.246V109.412C92.4504 108.412 91.2399 108.087 90.8431 108.049Z" fill="#333333"/>
<path d="M92.0454 101.155H89.1045L88.3471 102.961H87.478L90.4455 96.2516H90.7036L93.6711 102.961H92.7852L92.0454 101.155ZM91.7874 100.38L90.6391 97.7999H90.51L89.3488 100.38H91.7874Z" fill="#333333"/>
<path d="M22.2804 114.623H17.5297L16.3061 117.541H14.9022L19.6959 106.703H20.1128L24.9065 117.541H23.4754L22.2804 114.623ZM21.8635 113.372L20.0086 109.204H19.8002L17.9244 113.372H21.8635Z" fill="#333333"/>
<path d="M102.703 96.2516V102.885H101.87V97.0761H99.2354L99.1759 99.0187C99.1475 99.9348 99.0813 100.677 98.9759 101.246C98.8711 101.814 98.7056 102.242 98.479 102.529C98.2523 102.817 97.9464 102.961 97.5611 102.961C97.3855 102.961 97.207 102.936 97.0257 102.885L97.0852 102.042C97.1759 102.067 97.2665 102.08 97.3572 102.08C97.6008 102.08 97.7963 101.97 97.9436 101.752C98.0909 101.534 98.2014 101.208 98.275 100.772C98.3487 100.336 98.3968 99.761 98.4195 99.0471L98.513 96.2516H102.703Z" fill="#333333"/>
<path d="M7.99946 106.703V117.541H6.69938V108.05H1.31335V117.541H0V106.703H7.99946Z" fill="#333333"/>
<path d="M146.055 106.703V117.541H144.755V108.05H139.369V117.541H138.055V106.703H146.055Z" fill="#333333"/>
<path d="M114.057 106.703V117.541H101.154V106.703H102.611V116.194H106.892V106.703H108.334V116.194H112.615V106.703H114.057Z" fill="#333333"/>
<path d="M122.056 106.703H123.336V114.573L129.411 106.703H129.875V117.541H128.609V109.412L122.443 117.541H122.056V106.703Z" fill="#333333"/>
<path d="M0 99.3482C0 99.2057 0.115532 99.0902 0.258047 99.0902H39.7393C39.8818 99.0902 39.9973 99.2057 39.9973 99.3482V99.6063C39.9973 99.7488 39.8818 99.8643 39.7393 99.8643H0.258047C0.115531 99.8643 0 99.7488 0 99.6063V99.3482Z" fill="#333333"/>
<path d="M106.057 99.3482C106.057 99.2057 106.173 99.0902 106.315 99.0902H145.797C145.939 99.0902 146.055 99.2057 146.055 99.3482V99.6063C146.055 99.7488 145.939 99.8643 145.797 99.8643H106.315C106.173 99.8643 106.057 99.7488 106.057 99.6063V99.3482Z" fill="#333333"/>
</svg>
