<svg width="127" height="100" viewBox="0 0 127 100" fill="none" xmlns="http://www.w3.org/2000/svg">
<path fill-rule="evenodd" clip-rule="evenodd" d="M0 0H126.844V99.4573H0V0ZM0.000142978 9.72892H5.04508V19.8188H0.000142978V9.72892ZM126.843 9.72892H121.798V19.8188H126.843V9.72892ZM0.000142978 79.2766H5.04508V89.3665H0.000142978V79.2766ZM126.843 79.2766H121.798V89.3665H126.843V79.2766ZM23.6065 79.2757V83.7248L24.4222 82.4426L26.5217 79.2757H29.4168L26.1312 83.7316L29.4168 89.3655H26.6421L24.5669 85.6132L23.6065 86.7021V89.3655H21.2596V79.2757H23.6065ZM105.457 19.8139V17.7959H101.105V15.5382H104.789V13.4717H101.105V11.602H105.477V9.72403H101.105H100.269H98.7577V19.8139H100.269H101.105H105.457ZM70.1238 9.72403H72.4773V17.7239H74.8977V9.72403H77.2446V17.7239H79.6316V9.72403H81.9718V19.8139H70.1238V9.72403ZM26.6507 13.3276V9.72403H28.827V19.8139H26.6507V15.4897H23.4422V19.8139H21.2596V9.72403H23.4422V13.3276H26.6507ZM74.3959 85.0413H77.6045V89.3655H79.7808V79.2757H77.6045V82.8792H74.3959V79.2757H72.2134V89.3655H74.3959V85.0413ZM105.584 84.5229V84.125C105.584 83.3741 105.486 82.6997 105.291 82.1016C105.096 81.5036 104.822 80.9955 104.469 80.5774C104.116 80.1547 103.697 79.8332 103.211 79.6129C102.729 79.3881 102.198 79.2757 101.617 79.2757C101.031 79.2757 100.496 79.3881 100.01 79.6129C99.5284 79.8332 99.1112 80.1547 98.7583 80.5774C98.4095 80.9955 98.1376 81.5036 97.9425 82.1016C97.7515 82.6997 97.656 83.3741 97.656 84.125V84.5229C97.656 85.2738 97.7515 85.9483 97.9425 86.5463C98.1376 87.1398 98.4116 87.6479 98.7645 88.0706C99.1216 88.4888 99.5409 88.8102 100.022 89.0351C100.508 89.2554 101.044 89.3655 101.629 89.3655C102.21 89.3655 102.742 89.2554 103.223 89.0351C103.705 88.8102 104.122 88.4888 104.475 88.0706C104.828 87.6479 105.1 87.1398 105.291 86.5463C105.486 85.9483 105.584 85.2738 105.584 84.5229ZM103.367 84.1115V84.5229C103.367 85.0041 103.327 85.4312 103.248 85.8044C103.174 86.1731 103.062 86.4856 102.912 86.7419C102.767 86.9982 102.586 87.1916 102.37 87.3219C102.154 87.4523 101.907 87.5175 101.629 87.5175C101.339 87.5175 101.083 87.4523 100.863 87.3219C100.647 87.1916 100.465 86.9982 100.315 86.7419C100.17 86.4856 100.06 86.1731 99.9851 85.8044C99.9146 85.4312 99.8793 85.0041 99.8793 84.5229V84.1115C99.8793 83.6259 99.9146 83.1988 99.9851 82.8301C100.06 82.4569 100.17 82.1444 100.315 81.8926C100.461 81.6408 100.641 81.4519 100.857 81.326C101.073 81.1956 101.326 81.1304 101.617 81.1304C101.895 81.1304 102.142 81.1956 102.358 81.326C102.578 81.4519 102.763 81.6408 102.912 81.8926C103.062 82.1444 103.174 82.4569 103.248 82.8301C103.327 83.1988 103.367 83.6259 103.367 84.1115ZM50.4477 9.72403H49.8326H48.8296H48.2345L44.6574 19.8139H47.1781L47.6074 18.3725H51.087L51.5175 19.8139H54.0449L50.4477 9.72403ZM50.4412 16.2104H48.2514L49.3448 12.5395L50.4412 16.2104ZM51.4659 79.2757L47.969 85.6442V79.2757H45.6221V89.3655H47.969L51.4659 83.0039V89.3655H53.8128V79.2757H51.4659Z" fill="#333333"/>
</svg>
