<svg width="159" height="37" viewBox="0 0 159 37" fill="none" xmlns="http://www.w3.org/2000/svg">
<path fill-rule="evenodd" clip-rule="evenodd" d="M121.492 0H158.259V36.1663H121.492V0ZM144.123 3.22486V10.5306L130.487 17.3331V10.0274L144.123 3.22486ZM137.32 15.4538L144.123 12.0582V32.0717H137.32V15.4538Z" fill="#333333"/>
<path d="M37.534 19.8611C37.534 22.9761 36.3919 24.5336 34.1076 24.5336C31.8424 24.5336 30.7097 22.9761 30.7098 19.8611V16.4071C30.7097 13.2921 31.8424 11.7345 34.1076 11.7345C36.3919 11.7345 37.534 13.2921 37.534 16.4071V19.8611Z" fill="#333333"/>
<path d="M18.1604 17.2565H15.6405V12.1026H18.1604C18.8212 12.1026 19.3546 12.3385 19.7604 12.8104C20.1663 13.2822 20.3692 13.9051 20.3692 14.6791C20.3692 15.4531 20.1663 16.0762 19.7604 16.5483C19.3546 17.0204 18.8212 17.2565 18.1604 17.2565Z" fill="#333333"/>
<path d="M102.917 17.2565H100.34C99.6601 17.2565 99.1079 17.0204 98.6833 16.5483C98.2587 16.0762 98.0464 15.4533 98.0464 14.6795C98.0464 13.9243 98.2635 13.306 98.6976 12.8246C99.1317 12.3433 99.6791 12.1026 100.34 12.1026H102.917V17.2565Z" fill="#333333"/>
<path fill-rule="evenodd" clip-rule="evenodd" d="M0 0H118.598V36.1202H0V0ZM26.5471 16.1236V20.1731C26.5471 22.7028 27.2597 24.6519 28.685 26.0204C30.1103 27.389 31.9178 28.0732 34.1076 28.0732C36.3164 28.0732 38.1335 27.3936 39.5588 26.0343C40.9841 24.6749 41.6967 22.7212 41.6967 20.1731V16.1236C41.6967 13.5939 40.9841 11.6401 39.5588 10.262C38.1335 8.88397 36.3164 8.19494 34.1076 8.19493C31.9178 8.19494 30.1103 8.88397 28.685 10.262C27.2597 11.6401 26.5471 13.5939 26.5471 16.1236ZM11.4779 8.56301V27.7051H15.6405V20.7105H18.3022C20.1901 20.7105 21.7097 20.1254 22.861 18.955C24.0124 17.7846 24.5881 16.3593 24.5881 14.6791C24.5881 12.9989 24.0076 11.5595 22.8468 10.3609C21.6859 9.16232 20.171 8.56303 18.3022 8.56301H11.4779ZM56.9649 23.7689L57.7574 27.1953C55.9455 27.7806 54.1051 28.0732 52.2362 28.0732C49.8949 28.0732 48.007 27.3983 46.5725 26.0485C45.138 24.6987 44.4207 22.7494 44.4207 20.2007V16.0666C44.4207 13.5185 45.138 11.5695 46.5725 10.2197C48.007 8.86985 49.8949 8.19494 52.2362 8.19493C54.1051 8.19494 55.9455 8.48761 57.7574 9.07291L56.9649 12.4708C55.3789 11.98 53.8119 11.7345 52.2639 11.7345C49.8102 11.7345 48.5834 13.2921 48.5834 16.4071V19.8326C48.5834 21.4941 48.8995 22.693 49.5318 23.4292C50.1641 24.1655 51.0748 24.5336 52.2639 24.5336C53.9254 24.5336 55.4924 24.2787 56.9649 23.7689ZM73.5845 27.1953L72.792 23.7689C71.3195 24.2787 69.7525 24.5336 68.091 24.5336C66.9019 24.5336 65.9912 24.1655 65.3589 23.4292C64.7267 22.693 64.4105 21.4941 64.4105 19.8326V16.4071C64.4105 13.2921 65.6373 11.7345 68.091 11.7345C69.639 11.7345 71.206 11.98 72.792 12.4708L73.5845 9.07291C71.7726 8.48761 69.9322 8.19494 68.0633 8.19493C65.722 8.19494 63.8341 8.86985 62.3996 10.2197C60.9651 11.5695 60.2479 13.5185 60.2479 16.0666V20.2007C60.2479 22.7494 60.9651 24.6987 62.3996 26.0485C63.8341 27.3983 65.722 28.0732 68.0633 28.0732C69.9322 28.0732 71.7726 27.7806 73.5845 27.1953ZM91.0544 8.56301V27.7051H86.8917V19.55C86.8917 18.5303 86.9294 17.5296 87.0049 16.5479L79.9542 27.7051H76.5563V8.56301H80.719V16.8598C80.719 17.728 80.6905 18.7002 80.6335 19.7764L87.685 8.56301H91.0544ZM107.08 27.7051V8.56301H100.142C98.2731 8.56303 96.7581 9.16232 95.597 10.3609C94.4358 11.5595 93.8553 12.9991 93.8553 14.6795C93.8553 15.8686 94.1479 16.954 94.7332 17.9357C95.3186 18.9174 96.1398 19.6442 97.197 20.116L93.6288 27.7051H98.2729L101.331 20.7105H102.917V27.7051H107.08Z" fill="#333333"/>
</svg>
