<svg width="188" height="35" viewBox="0 0 188 35" fill="none" xmlns="http://www.w3.org/2000/svg">
<path d="M184.353 1.12241C184.905 1.12241 185.434 1.34162 185.825 1.73183C186.215 2.12204 186.434 2.65128 186.434 3.20311V31.1549C186.433 31.7065 186.214 32.2353 185.824 32.6253C185.434 33.0154 184.905 33.2348 184.353 33.2356H3.20311C2.65151 33.2348 2.12273 33.0154 1.73269 32.6253C1.34265 32.2353 1.12318 31.7065 1.12241 31.1549V3.20311C1.12241 2.65128 1.34162 2.12204 1.73183 1.73183C2.12204 1.34162 2.65128 1.12241 3.20311 1.12241H184.353ZM184.353 0H3.20311C2.35383 0.000775953 1.53956 0.338495 0.939027 0.939027C0.338495 1.53956 0.000775953 2.35383 0 3.20311V31.1549C0.000775953 32.0042 0.338495 32.8184 0.939027 33.419C1.53956 34.0195 2.35383 34.3572 3.20311 34.358H184.353C185.203 34.3572 186.017 34.0195 186.617 33.419C187.218 32.8184 187.556 32.0042 187.556 31.1549V3.20311C187.556 2.35383 187.218 1.53956 186.617 0.939027C186.017 0.338495 185.203 0.000775953 184.353 0Z" fill="#333333"/>
<path d="M50.4879 8.2056C49.0812 7.04509 47.1441 6.46386 44.6765 6.46191H36.4709C36.372 6.45782 36.2732 6.47477 36.1813 6.51165C36.0894 6.54853 36.0063 6.60449 35.9376 6.67584C35.8714 6.75291 35.821 6.84227 35.7893 6.93881C35.7576 7.03535 35.7453 7.13719 35.7529 7.23851V27.1488C35.7507 27.2454 35.7686 27.3413 35.8055 27.4306C35.8423 27.5199 35.8972 27.6006 35.9669 27.6675C36.0341 27.7367 36.1149 27.7914 36.2041 27.8282C36.2933 27.865 36.3891 27.8831 36.4856 27.8814H39.4162C39.6183 27.89 39.8159 27.8196 39.9671 27.6851C40.0393 27.6164 40.0958 27.5329 40.1327 27.4403C40.1696 27.3478 40.1861 27.2483 40.181 27.1488V19.9923H44.6765C47.1441 19.9923 49.0812 19.4267 50.4879 18.2955C51.8945 17.1643 52.5979 15.4969 52.5979 13.2931C52.5979 11.0736 51.8945 9.37782 50.4879 8.2056ZM47.232 15.7254C46.6078 16.2881 45.7081 16.5665 44.5241 16.5665H40.1283V9.89946H44.5241C45.7491 9.89946 46.6615 10.1925 47.2613 10.7786C47.8474 11.3647 48.1639 12.1941 48.1639 13.255C48.1639 14.3158 47.8533 15.1657 47.232 15.7254ZM70.5447 19.1044C71.7567 18.7163 72.8125 17.9501 73.5573 16.9182C74.2905 15.8156 74.6595 14.5108 74.6123 13.1876C74.6123 11.0385 73.9041 9.38661 72.4876 8.23197C71.0712 7.07733 69.1087 6.4961 66.6001 6.48828H58.6876C58.5881 6.48377 58.4888 6.50052 58.3964 6.53741C58.3039 6.5743 58.2203 6.63049 58.1513 6.70221C58.0163 6.85328 57.9449 7.05068 57.952 7.25316V27.1488C57.9516 27.2454 57.9704 27.3411 58.0073 27.4303C58.0441 27.5196 58.0983 27.6006 58.1668 27.6688C58.2352 27.7369 58.3165 27.7908 58.4059 27.8273C58.4953 27.8638 58.591 27.8822 58.6876 27.8814H61.5009C61.6025 27.8851 61.7037 27.868 61.7984 27.8313C61.8932 27.7945 61.9794 27.7388 62.0519 27.6675C62.1211 27.6003 62.1758 27.5195 62.2126 27.4303C62.2494 27.3411 62.2675 27.2453 62.2658 27.1488V19.8224H66.4565L70.3688 27.0726C70.4979 27.2941 70.6634 27.4922 70.8582 27.6587C71.0786 27.8221 71.3493 27.9029 71.6231 27.8873H74.4365C74.6029 27.8871 74.7628 27.8219 74.8819 27.7056C74.9462 27.6477 74.9972 27.5766 75.0316 27.4972C75.066 27.4178 75.0829 27.332 75.0812 27.2455C75.0764 27.1284 75.0442 27.014 74.9874 26.9114L70.5447 19.1044ZM69.2611 15.5115C68.6476 16.0507 67.7294 16.3213 66.5063 16.3233H62.257V9.89946H66.5063C67.7313 9.89946 68.6496 10.1798 69.2611 10.7405C69.8706 11.3032 70.1783 12.1003 70.1783 13.1407C70.1783 14.181 69.8706 14.9723 69.2611 15.5115ZM94.9504 24.3237H84.6935V18.7996H94.0508C94.2532 18.8067 94.4506 18.7353 94.6017 18.6003C94.6739 18.5316 94.7304 18.4481 94.7673 18.3556C94.8042 18.263 94.8207 18.1636 94.8156 18.064V16.1386C94.8193 16.0371 94.8022 15.9359 94.7654 15.8411C94.7287 15.7464 94.673 15.6602 94.6017 15.5877C94.5288 15.517 94.4426 15.4617 94.3479 15.4249C94.2533 15.3882 94.1522 15.3708 94.0508 15.3738H84.6935V10.0225H94.7248C94.9265 10.0301 95.1231 9.95863 95.2728 9.82327C95.345 9.75457 95.4015 9.67108 95.4384 9.57852C95.4753 9.48595 95.4918 9.3865 95.4867 9.28697V7.23558C95.4913 7.13417 95.4747 7.03292 95.4381 6.93826C95.4014 6.8436 95.3455 6.75758 95.2739 6.68566C95.2022 6.61375 95.1164 6.5575 95.0219 6.5205C94.9274 6.48349 94.8262 6.46654 94.7248 6.4707H81.2442C81.1452 6.46661 81.0465 6.48357 80.9545 6.52044C80.8626 6.55732 80.7795 6.61328 80.7108 6.68463C80.5747 6.83505 80.5032 7.0329 80.5115 7.23558V27.1488C80.5093 27.2454 80.5272 27.3413 80.564 27.4306C80.6009 27.5199 80.6558 27.6006 80.7255 27.6675C80.7927 27.7367 80.8735 27.7914 80.9627 27.8282C81.0519 27.865 81.1477 27.8831 81.2442 27.8814H94.9504C95.1526 27.89 95.3502 27.8196 95.5014 27.6851C95.5736 27.6164 95.6301 27.5329 95.667 27.4403C95.7039 27.3478 95.7204 27.2483 95.7153 27.1488V25.0681C95.7202 24.969 95.7036 24.8701 95.6666 24.778C95.6297 24.686 95.5734 24.603 95.5014 24.5347C95.3525 24.3949 95.1546 24.3192 94.9504 24.3237ZM120.669 6.46191H118.222C118.029 6.46299 117.841 6.51862 117.679 6.62235C117.516 6.72608 117.387 6.87366 117.305 7.04802L111.409 18.0054L105.5 7.05681C105.419 6.88245 105.289 6.73487 105.127 6.63114C104.964 6.52741 104.776 6.47178 104.583 6.4707H102.107C102.007 6.46619 101.908 6.48294 101.816 6.51983C101.723 6.55672 101.64 6.6129 101.571 6.68463C101.436 6.83599 101.366 7.03345 101.374 7.23558V27.1488C101.374 27.2451 101.393 27.3406 101.429 27.4296C101.466 27.5187 101.52 27.5996 101.588 27.6677C101.656 27.7358 101.737 27.7898 101.826 27.8265C101.915 27.8631 102.011 27.8818 102.107 27.8814H104.744C104.843 27.8863 104.942 27.8697 105.034 27.8328C105.127 27.7958 105.21 27.7395 105.278 27.6675C105.41 27.5277 105.482 27.3412 105.477 27.1488V13.9993L109.726 22.0731C109.821 22.2722 109.969 22.4408 110.154 22.5595C110.34 22.6782 110.555 22.7422 110.776 22.7442H112.059C112.275 22.7465 112.487 22.6837 112.667 22.564C112.846 22.4443 112.986 22.2732 113.067 22.0731L117.311 13.9993V27.1488C117.31 27.2451 117.329 27.3406 117.366 27.4296C117.402 27.5187 117.456 27.5996 117.524 27.6677C117.593 27.7358 117.673 27.7898 117.763 27.8265C117.852 27.8631 117.947 27.8818 118.043 27.8814H120.681C120.883 27.8897 121.08 27.8193 121.232 27.6851C121.304 27.616 121.36 27.5325 121.397 27.44C121.433 27.3475 121.45 27.2483 121.446 27.1488V7.23851C121.45 7.13684 121.434 7.03534 121.397 6.94047C121.36 6.84559 121.304 6.75943 121.232 6.68747C121.16 6.61551 121.074 6.55933 120.979 6.52251C120.884 6.4857 120.783 6.46905 120.681 6.47363L120.669 6.46191ZM131.706 6.46191H128.775C128.583 6.45796 128.397 6.52949 128.256 6.66118C128.184 6.72989 128.128 6.81338 128.091 6.90594C128.054 6.9985 128.037 7.09795 128.042 7.19748V27.1254C128.042 27.2217 128.061 27.3171 128.097 27.4062C128.134 27.4952 128.188 27.5762 128.256 27.6443C128.324 27.7124 128.405 27.7663 128.494 27.803C128.583 27.8397 128.679 27.8584 128.775 27.858H131.706C131.805 27.8625 131.904 27.8458 131.997 27.8089C132.089 27.772 132.173 27.7158 132.242 27.6441C132.373 27.5037 132.444 27.3174 132.438 27.1254V7.19748C132.444 7.09944 132.429 7.00135 132.395 6.90915C132.361 6.81695 132.309 6.73259 132.242 6.66118C132.097 6.53085 131.906 6.46339 131.712 6.47363L131.706 6.46191ZM153.533 24.3237H143.258V18.7996H152.615C152.818 18.8067 153.015 18.7353 153.166 18.6003C153.238 18.5313 153.294 18.4477 153.331 18.3552C153.368 18.2628 153.385 18.1635 153.38 18.064V16.1386C153.385 16.037 153.368 15.9355 153.331 15.8406C153.294 15.7457 153.238 15.6596 153.166 15.5876C153.094 15.5157 153.008 15.4595 152.913 15.4227C152.818 15.3858 152.717 15.3692 152.615 15.3738H143.258V10.0225H153.289C153.491 10.0301 153.688 9.95863 153.837 9.82327C153.91 9.75457 153.966 9.67108 154.003 9.57852C154.04 9.48595 154.056 9.3865 154.051 9.28697V7.23558C154.056 7.13417 154.039 7.03292 154.003 6.93826C153.966 6.8436 153.91 6.75758 153.838 6.68566C153.767 6.61375 153.681 6.5575 153.586 6.5205C153.492 6.48349 153.391 6.46654 153.289 6.4707H139.788C139.689 6.46661 139.59 6.48357 139.499 6.52044C139.407 6.55732 139.324 6.61328 139.255 6.68463C139.119 6.83505 139.047 7.0329 139.056 7.23558V27.1488C139.055 27.2451 139.074 27.3406 139.111 27.4296C139.147 27.5187 139.201 27.5996 139.269 27.6677C139.337 27.7358 139.418 27.7898 139.507 27.8265C139.596 27.8631 139.692 27.8818 139.788 27.8814H153.533C153.735 27.89 153.932 27.8196 154.083 27.6851C154.155 27.616 154.211 27.5325 154.248 27.44C154.285 27.3475 154.302 27.2483 154.297 27.1488V25.0681C154.301 24.9691 154.285 24.8704 154.248 24.7785C154.211 24.6865 154.155 24.6034 154.083 24.5347C153.935 24.3949 153.737 24.3192 153.533 24.3237ZM176.977 26.8938L172.552 19.1044C173.755 18.7119 174.802 17.9461 175.541 16.9182C176.283 15.8183 176.66 14.5134 176.62 13.1876C176.62 11.0385 175.911 9.38661 174.495 8.23197C173.078 7.07733 171.116 6.4961 168.607 6.48828H160.695C160.595 6.48377 160.496 6.50052 160.404 6.53741C160.311 6.5743 160.228 6.63049 160.159 6.70221C160.024 6.85328 159.952 7.05068 159.959 7.25316V27.1488C159.959 27.2454 159.978 27.3411 160.015 27.4303C160.051 27.5196 160.106 27.6006 160.174 27.6688C160.242 27.7369 160.324 27.7908 160.413 27.8273C160.503 27.8638 160.598 27.8822 160.695 27.8814H163.508C163.61 27.8855 163.711 27.8685 163.806 27.8317C163.901 27.7949 163.987 27.739 164.059 27.6675C164.128 27.6003 164.183 27.5195 164.22 27.4303C164.257 27.3411 164.275 27.2453 164.273 27.1488V19.8224H168.464L172.379 27.0726C172.506 27.2946 172.671 27.4929 172.865 27.6587C173.086 27.8221 173.357 27.9029 173.63 27.8873H176.447C176.612 27.8869 176.771 27.8217 176.889 27.7056C176.953 27.6477 177.004 27.5766 177.039 27.4972C177.073 27.4178 177.09 27.332 177.088 27.2455C177.082 27.1256 177.047 27.0091 176.986 26.9056L176.977 26.8938ZM171.268 15.5115C170.657 16.0507 169.739 16.3213 168.514 16.3233H164.264V9.89946H168.508C169.733 9.89946 170.651 10.1798 171.262 10.7405C171.872 11.3032 172.18 12.1003 172.18 13.1407C172.18 14.181 171.878 14.9723 171.268 15.5115Z" fill="#333333"/>
<path d="M29.2764 16.9006C29.1559 16.6368 28.9492 16.4218 28.6903 16.291L12.0446 6.67877C11.2006 6.19229 10.509 6.59085 10.509 7.55794V26.7883C10.509 27.7642 11.2006 28.1628 12.0446 27.6675L28.6903 18.0552C28.9494 17.9233 29.156 17.7074 29.2764 17.4428C29.3113 17.3551 29.3292 17.2616 29.3291 17.1673C29.3276 17.0759 29.3098 16.9856 29.2764 16.9006Z" fill="#333333"/>
</svg>
