<svg width="134" height="86" viewBox="0 0 134 86" fill="none" xmlns="http://www.w3.org/2000/svg">
<path d="M25.9583 43.0661C25.9583 52.1738 33.1822 59.557 42.0933 59.557V26.5752C33.1822 26.5752 25.9583 33.9585 25.9583 43.0661Z" fill="#333333"/>
<path d="M67.3872 43.0661C67.3872 33.9585 60.1633 26.5752 51.2523 26.5752V59.557C60.1633 59.557 67.3872 52.1738 67.3872 43.0661Z" fill="#333333"/>
<path fill-rule="evenodd" clip-rule="evenodd" d="M0 4.27102C0 1.91225 1.91225 0 4.27102 0H129.554C131.913 0 133.825 1.91225 133.825 4.27102V81.624C133.825 83.9827 131.913 85.895 129.554 85.895H4.27102C1.91225 85.895 0 83.9827 0 81.624V4.27102ZM42.2357 17.7959C28.2138 17.7959 16.8468 29.1629 16.8468 43.1848C16.8468 57.2066 28.2138 68.5736 42.2357 68.5736H51.015C65.0369 68.5736 76.4038 57.2066 76.4038 43.1848C76.4038 29.1629 65.0369 17.7959 51.015 17.7959H42.2357ZM117.453 67.3872L99.1826 42.4729L117.216 18.5078H106.538L91.5897 38.9105V18.9823H82.5731V67.3872H91.5897V46.2271L106.301 67.3872H117.453Z" fill="#333333"/>
</svg>
