<svg width="181" height="25" viewBox="0 0 181 25" fill="none" xmlns="http://www.w3.org/2000/svg">
<path d="M4.76643 0.478306V7.79288L9.7349 0.478306H15.5198L7.11666 9.05046L22.4591 0.478306V5.92094L8.68348 11.0914L22.4591 9.80088V14.9714L8.68348 13.6808L22.4591 18.8513V24.294L7.11666 15.7218L15.5198 24.294H9.73077L4.76231 16.9794V24.294H0V0.478306H4.76643Z" fill="#333333"/>
<path d="M25.8566 0.478306H31.4683L30.6189 15.8867L37.5913 0.478306H42.1845V24.2898H36.5729L37.4222 8.8814L30.4499 24.2898H25.8566V0.478306Z" fill="#333333"/>
<path d="M45.5862 0.478306H51.1979V9.66481H55.9602V0.478306H61.5719V24.2898H55.9602V13.4046H51.1979V24.2898H45.5862V0.478306Z" fill="#333333"/>
<path d="M64.1572 12.3861C64.1572 5.58283 67.2867 0.00412724 73.5787 0.00412724C79.8707 0.00412724 83.0003 5.58283 83.0003 12.3861C83.0003 19.1894 79.8707 24.7681 73.5787 24.7681C67.2867 24.7681 64.1572 19.1894 64.1572 12.3861ZM73.5787 21.2304C75.7888 21.2304 77.0834 17.3175 77.0834 12.3861C77.0834 7.45476 75.7888 3.54184 73.5787 3.54184C71.3687 3.54184 70.074 7.45476 70.074 12.3861C70.0781 17.3175 71.3687 21.2304 73.5787 21.2304Z" fill="#333333"/>
<path d="M85.5855 0.478306H101.744V24.2898H96.1327V4.21806H91.2013V24.2898H85.5896V0.478306H85.5855Z" fill="#333333"/>
<path d="M104.33 12.3861C104.33 5.58283 107.459 0.00412724 113.751 0.00412724C120.043 0.00412724 123.173 5.58283 123.173 12.3861C123.173 19.1894 120.043 24.7681 113.751 24.7681C107.459 24.7681 104.33 19.1894 104.33 12.3861ZM113.755 21.2304C115.965 21.2304 117.26 17.3175 117.26 12.3861C117.26 7.45476 115.965 3.54184 113.755 3.54184C111.545 3.54184 110.251 7.45476 110.251 12.3861C110.251 17.3175 111.541 21.2304 113.755 21.2304Z" fill="#333333"/>
<path d="M125.762 0.478306H131.374L130.524 15.8867L137.497 0.478306H142.09V24.2898H136.478L137.328 8.8814L130.355 24.2898H125.762V0.478306Z" fill="#333333"/>
<path d="M157.02 15.8867L162.36 16.7031L162.191 17.5195C161.271 21.9437 158.484 24.764 153.891 24.764C147.599 24.764 144.671 19.1853 144.671 12.382C144.671 5.5787 147.599 0 153.891 0C158.315 0 161.135 2.8244 162.125 6.97235L162.294 7.68566L156.818 8.91026C156.41 5.61169 155.424 3.53359 153.891 3.53359C151.681 3.53359 150.592 7.44652 150.592 12.3779C150.592 17.3092 151.681 21.2222 153.891 21.2222C155.561 21.2304 156.612 19.0162 157.02 15.8867Z" fill="#333333"/>
<path d="M164.673 0.478306H170.284V11.1945L174.878 0.478306H180.663L174.028 12.0109L180.832 24.2898H174.54L170.289 13.5736V24.2898H164.677V0.478306H164.673Z" fill="#333333"/>
</svg>
