<svg width="172" height="86" viewBox="0 0 172 86" fill="none" xmlns="http://www.w3.org/2000/svg">
<path d="M78.0406 57.9076C78.1421 57.9076 78.1421 57.9076 78.2436 57.9386C79.7999 58.1248 81.3224 58.373 82.4727 58.8696C83.5553 59.304 84.1981 59.8626 84.7733 60.8556C85.6529 62.3451 85.7206 64.4242 84.9086 66.0069C84.2996 67.1861 83.014 68.1791 81.8298 68.7066C80.6119 69.2652 79.3939 69.5135 78.0068 69.6686C75.5709 69.9169 72.9319 69.4514 70.7667 68.4894C69.481 67.8998 67.8909 66.9068 67.079 65.6345C66.5038 64.7035 66.5038 63.4623 67.2143 62.5623C68.3646 61.1349 70.8005 60.8246 72.6275 60.8866C74.0146 60.9487 76.552 61.3211 77.8715 61.7555C78.2436 61.8796 79.5969 62.3761 79.8337 62.5934C80.0029 62.7485 80.1044 62.9657 80.0367 63.183C79.7322 64.0208 77.4655 64.4863 76.8227 64.5794C75.0634 64.8277 74.1837 64.207 72.1876 63.4933C71.6802 63.3071 71.0373 63.1209 70.5299 63.0899C69.6164 62.9968 68.5338 63.245 68.3646 64.145C68.2631 64.6104 68.8721 65.0449 69.3119 65.2311C70.3607 65.6655 71.2403 65.7896 72.2891 65.8207C75.3679 65.8517 78.8526 65.3862 81.39 63.7415C81.7283 63.5243 82.0667 63.183 82.0667 62.7796C82.0667 61.9417 80.4765 61.4142 80.4765 61.4142C78.7849 60.7625 75.6047 60.4522 74.0146 60.328C72.323 60.2039 69.6164 59.9867 68.9736 59.8936C68.2969 59.8005 67.5864 59.6764 67.0113 59.4592C66.4361 59.2109 65.861 58.6834 65.6918 58.0938C65.3873 57.0387 65.7595 55.7353 66.4023 54.8665C68.0939 52.6322 72.0523 51.7943 75.0295 51.453C77.9053 51.1116 82.5403 51.1426 85.3484 52.508C85.7882 52.7253 85.9912 52.9114 85.9236 53.3459C85.7544 54.1527 85.0778 54.6492 84.2996 54.8975C83.4538 55.1457 81.7283 55.2388 80.984 55.2699C77.6008 55.4561 73.5071 55.363 70.2592 56.1698C70.0224 56.2319 69.5826 56.356 69.4134 56.4801C68.9059 56.9766 70.3607 57.1318 70.6652 57.1938C70.7667 57.2249 70.7667 57.2249 70.8682 57.2249L78.0406 57.9076ZM57.8427 44.0364C57.8427 44.0364 58.3841 43.2916 58.8577 42.702C59.7035 41.6469 61.226 40.1884 62.3763 39.2885C62.7146 39.0092 63.1544 38.6989 63.1544 38.6989C63.1544 38.6989 62.5116 38.761 62.1394 38.823C61.2598 38.9782 60.008 39.754 59.3652 40.2505C58.3164 41.0883 57.1661 42.4227 57.6736 43.6019C57.7412 43.8191 57.8427 44.0364 57.8427 44.0364ZM63.6957 45.4638C65.3535 45.3707 66.9098 44.9053 68.3646 44.1915C69.7855 43.4778 71.8831 42.0503 71.6463 40.3746C71.5787 39.8471 71.2065 39.4126 70.699 39.2264C70.0562 38.9782 69.7517 39.0092 68.9397 39.2264C68.3646 39.3816 68.0939 39.4747 67.5188 39.785C65.8948 40.6539 63.5604 42.5158 62.3086 44.0053C62.0041 44.3467 61.7335 44.7501 61.4966 45.0294C61.3613 45.1845 61.226 45.3397 61.2598 45.4018C61.3275 45.5259 63.0529 45.5259 63.6957 45.4638ZM59.4667 48.3187C59.2975 48.4739 59.1284 48.8773 58.9254 49.1876C58.8239 49.3428 58.6547 49.529 58.5194 49.6221C58.0796 49.9014 57.7074 49.9324 57.3014 49.5911C56.7263 49.1256 56.388 48.3808 56.3541 47.6671C56.3541 47.3568 56.3879 47.0154 56.3203 46.7361C56.2188 46.3017 55.7451 45.8362 55.4745 45.4018C55.17 44.9053 54.9332 44.0364 54.8993 43.4778C54.7978 41.709 55.8128 40.0953 57.0984 38.823C58.4179 37.5197 60.1433 36.4646 62.0379 35.7198C63.7972 35.0371 66.4023 34.5717 68.3646 35.1923C69.0074 35.3785 69.887 35.875 70.3269 36.4025C70.4284 36.4956 70.496 36.6198 70.5975 36.6818C70.699 36.7439 70.902 36.7439 71.105 36.7749C71.714 36.868 72.6275 37.3025 72.9996 37.5817C73.7439 38.1714 74.1499 38.7299 74.3191 39.5368C74.6912 41.1504 73.6763 42.9502 72.526 44.0364C70.5299 45.8983 68.5676 47.2016 66.0302 48.1326C64.9137 48.536 63.1882 48.9084 61.9026 48.8153C61.4966 48.7842 61.0906 48.6911 60.7185 48.6601C60.5155 48.6291 59.805 48.4739 59.7373 48.4429C59.602 48.3498 59.5005 48.3187 59.4667 48.3187ZM61.7335 51.9184C61.8011 51.9184 61.9364 51.9495 62.0379 52.0115C62.9176 52.3218 63.2897 53.0666 63.5266 53.9045C64.034 55.8284 64.237 60.1108 64.3385 61.7865C64.4062 63.0278 64.44 64.2691 64.5077 65.5104C64.5415 66.5654 64.643 67.9619 64.4062 68.9238C64.3047 69.2652 64.0679 69.6996 63.6957 69.8858C63.2559 70.1341 62.3086 70.1651 61.7673 70.041C60.4478 69.7927 60.0418 69.0169 59.8388 67.8377C59.399 65.0138 59.602 59.4592 59.8727 57.1318C59.9742 56.356 60.2787 53.8734 60.7185 52.8494C60.8538 52.5391 61.1921 51.8253 61.7335 51.9184ZM22.0482 56.6353C22.0482 56.6353 20.1197 56.7594 18.7664 56.8835C17.0748 57.0387 13.8607 57.5662 12.0338 58.1558C11.4925 58.342 10.3422 58.7765 10.2745 59.304C10.173 59.8315 10.5452 60.266 10.9512 60.7004C11.188 60.9487 12.5074 62.1279 12.8796 62.4072C14.4359 63.6174 17.6161 65.4483 19.9506 66.3482C20.7625 66.6585 22.082 67.093 22.082 67.093C22.082 67.093 21.9805 63.6174 22.0143 60.2039C22.0143 58.4041 22.0482 56.6353 22.0482 56.6353ZM57.6397 58.0007C57.7412 58.9316 57.5044 60.7004 57.4368 60.9177C57.3691 61.4452 56.9293 62.6865 56.8278 62.8416C56.4556 63.5864 56.1173 64.207 55.7451 64.8277C55.1023 65.8827 53.5799 67.5585 52.7002 68.2722C49.3508 70.9099 44.1745 72.4304 39.7425 72.927C36.7314 73.2683 33.2805 73.2062 30.0664 72.6787C28.9838 72.4925 27.326 72.1512 27.326 72.1512C27.326 72.1512 27.326 72.7408 27.2922 73.1752C27.2583 73.3614 27.123 73.8889 27.0215 74.0441C26.7847 74.4785 26.4125 74.6958 25.8712 74.8199C25.1946 74.944 24.4841 74.9751 23.8751 74.7268C22.8601 74.3234 22.488 73.4545 22.3188 72.4615C22.1835 71.6547 22.0143 70.2582 22.0143 70.2582C22.0143 70.2582 21.27 69.9169 20.6272 69.6376C18.6988 68.7687 16.838 67.6826 15.214 66.5965C14.7742 66.2861 12.8458 64.8277 12.4059 64.4553C11.2218 63.4312 10.1392 62.3761 9.32721 61.0728C8.68439 60.0488 8.51523 59.1178 8.98888 58.0317C9.66553 56.5111 12.0338 55.363 13.6577 54.7113C14.8419 54.2148 18.5973 53.0976 20.1197 52.9115C20.864 52.8184 21.9805 52.6322 22.0482 52.6011C22.082 52.5701 22.082 52.5701 22.1158 52.5391C22.1497 52.508 22.2173 50.9875 22.1835 50.4289C22.1835 49.8703 22.6233 46.3327 22.7586 45.5569C22.8263 45.1535 23.1646 43.5709 23.5029 43.1675C23.7398 42.8882 24.1119 42.9192 24.4503 43.1054C26.2095 44.1295 26.7508 47.636 26.8862 49.4049C26.9538 50.491 27.0215 52.1357 27.0215 52.1357C27.0215 52.1357 29.0514 52.0736 30.3032 52.1046C31.5212 52.1357 32.8745 52.3218 34.1263 52.477C35.7502 52.7253 38.8966 53.3459 40.6898 54.1838C42.1784 54.8665 43.5655 56.0457 44.0392 57.2869C44.4451 58.4041 44.4113 59.2109 43.7685 60.2349C43.058 61.3831 41.7047 62.252 40.3176 62.3141C39.9116 62.3451 38.3553 62.1589 37.8817 61.8176C37.7125 61.6934 37.7125 61.4452 37.8478 61.29C37.8817 61.228 38.626 60.8866 39.032 60.6694C39.235 60.5763 39.438 60.4522 39.5733 60.297C39.9116 60.0177 40.2499 59.7074 40.2161 59.335C40.1823 58.8696 39.6071 58.5592 39.0996 58.373C36.6299 57.4731 31.6904 56.7284 29.3221 56.6042C28.3748 56.5422 27.0553 56.5111 27.0553 56.5111L27.326 68.5825C27.326 68.5825 28.4086 68.7687 29.2883 68.8928C29.7958 68.9549 31.8934 69.1411 32.4347 69.1411C36.6975 69.2342 41.4341 68.8928 45.3248 67.2171C47.0502 66.4723 48.6065 65.5724 49.7906 64.3001C51.3469 62.6554 52.1927 60.3901 51.9559 58.0317C51.7191 55.4561 49.7568 52.4149 48.1667 50.553C44.0053 45.65 36.8667 41.5848 30.5739 39.2264C24.1458 36.806 17.8191 35.4095 11.0188 35.1923C9.25954 35.1302 5.43649 35.2233 3.50805 35.7198C3.23739 35.7819 2.96673 35.875 2.69608 35.9371C2.49308 35.9681 2.18859 36.0922 2.08709 36.1853C2.05326 36.2164 1.9856 36.2784 1.9856 36.2784C1.9856 36.2784 2.12093 36.3405 2.22242 36.3715C2.42542 36.4646 3.30506 36.4956 3.74488 36.5887C4.15087 36.6508 4.55685 36.837 4.72601 37.1163C4.89518 37.3645 4.89518 37.5818 4.72601 37.799C4.28619 38.2955 2.62841 38.2024 1.91793 38.1093C1.17362 37.9852 0.226317 37.799 0.0571559 37.1783C-0.145838 36.4646 0.226317 35.7819 0.632305 35.1302C1.44428 33.8269 2.56075 33.1752 4.25236 32.7408C6.62062 32.1512 9.6317 31.7167 11.8646 31.6547C16.9395 31.4685 21.7437 32.3063 26.6832 33.6717C29.4913 34.4475 33.179 35.7509 35.8856 36.9611C37.814 37.83 40.8927 39.3816 42.5844 40.4367C43.1257 40.778 46.3059 42.8882 46.7796 43.2606C47.7945 44.0364 49.1478 45.1225 50.129 46.0224C52.0236 47.7291 54.358 50.3358 55.4745 52.446C55.7451 52.9425 55.9481 53.439 56.3203 53.9976C56.4556 54.1838 56.9631 55.363 57.0308 55.7043C57.1323 56.0457 57.2338 56.5422 57.2676 56.5732C57.4368 56.6042 57.6736 57.5972 57.6397 58.0007ZM121.549 55.3319C119.181 55.8284 112.922 56.1077 112.922 56.1077L112.144 58.373C112.144 58.373 115.256 58.1248 117.557 58.342C117.557 58.342 118.301 58.2489 118.369 59.1178C118.403 59.8936 118.301 60.7625 118.301 60.7625C118.301 60.7625 118.267 61.29 117.455 61.4142C116.609 61.5383 110.723 61.7555 110.723 61.7555L109.775 64.7035C109.775 64.7035 109.437 65.3862 110.215 65.2C110.959 65.0138 117.117 63.9588 117.929 64.1139C118.775 64.3001 119.756 65.3552 119.451 66.3172C119.113 67.4964 112.956 71.0961 109.234 70.8478C109.234 70.8478 107.272 70.972 105.614 68.5204C104.058 66.1931 106.189 61.7865 106.189 61.7865C106.189 61.7865 105.208 59.7384 105.918 59.0247C105.918 59.0247 106.324 58.6834 107.576 58.5903L109.099 55.7353C109.099 55.7353 107.373 55.8284 106.358 54.6803C105.411 53.5942 105.343 53.0666 106.054 52.7873C106.832 52.446 114.004 51.2357 118.91 51.3909C118.91 51.3909 120.635 51.2357 122.09 53.9665C122.056 53.9665 122.767 55.0837 121.549 55.3319ZM103.043 66.3482C102.4 67.7136 100.742 69.1721 98.6783 68.2722C96.6484 67.3723 93.3667 61.259 93.3667 61.259C93.3667 61.259 92.1149 58.9937 91.878 59.0247C91.878 59.0247 91.6074 58.5903 91.4382 61.0728C91.2691 63.5554 91.4721 68.3963 90.3894 69.1411C89.3745 69.9169 88.1227 69.6065 87.4798 68.7066C86.9047 67.8377 86.6679 65.7276 86.9724 62.0658C87.3445 58.4041 88.2918 54.4941 89.4759 53.2838C90.6601 52.0736 91.6074 52.9425 91.9795 53.2838C91.9795 53.2838 93.5696 54.6182 96.1747 58.4661L96.6484 59.1799C96.6484 59.1799 99.0167 62.8416 99.2873 62.8416C99.2873 62.8416 99.4903 62.9968 99.6595 62.8727C99.8963 62.8106 99.7948 61.6314 99.7948 61.6314C99.7948 61.6314 99.2873 57.6283 97.122 50.8944C97.122 50.8944 96.7837 50.0565 97.0205 49.2497C97.2574 48.4429 98.1032 48.8153 98.1032 48.8153C98.1032 48.8153 101.453 50.3668 103.11 55.394C104.768 60.4211 103.652 64.9828 103.043 66.3482ZM139.209 63.3381C137.687 65.7896 133.356 70.9099 127.605 69.6996C125.71 73.92 124.12 78.2024 123.207 84.5639C123.207 84.5639 123.004 85.8051 121.887 85.3707C120.771 84.9983 118.944 83.3226 118.572 80.9642C118.166 77.861 119.688 72.6477 122.733 66.6585C121.853 65.3242 121.244 63.4312 121.752 60.7004C121.752 60.7004 122.53 55.6733 128.045 51.1426C128.045 51.1426 128.721 50.6151 129.094 50.7703C129.5 50.9254 129.33 52.5701 128.992 53.3769C128.654 54.1838 126.184 58.0627 126.184 58.0627C126.184 58.0627 124.662 60.7004 125.068 62.7796C127.943 58.7144 134.541 50.491 138.6 53.0666C139.954 53.9665 140.597 55.9215 140.597 58.0317C140.597 59.8936 140.123 61.8486 139.209 63.3381ZM138.025 56.8835C138.025 56.8835 137.788 55.2699 136.063 57.0387C134.574 58.5592 131.902 61.3831 129.736 65.2C132.003 64.9518 134.168 63.8346 134.845 63.2761C135.928 62.4072 138.431 60.0177 138.025 56.8835ZM170.876 56.5111H160.355C160.152 53.2218 159.712 50.0255 159.035 46.7361C158.968 46.3948 158.629 46.1465 158.257 46.1465H155.821C155.618 46.1465 155.415 46.2396 155.28 46.3948C155.144 46.5499 155.077 46.7361 155.144 46.9534C155.821 50.1496 156.261 53.2838 156.498 56.5422H146.382C145.908 56.5422 145.536 56.8835 145.536 57.318V59.335C145.536 59.7695 145.908 60.1108 146.382 60.1108H156.667C156.667 60.6073 156.667 61.0418 156.667 61.4762C156.667 64.3622 156.532 66.7516 156.227 69.4514C156.193 69.6686 156.261 69.8548 156.43 70.01C156.565 70.1651 156.802 70.2582 157.005 70.2582H159.272C159.712 70.2582 160.084 69.9479 160.118 69.5445C160.422 66.8447 160.558 64.4242 160.558 61.4762C160.558 61.0728 160.558 60.6073 160.558 60.1108H170.944C171.418 60.1108 171.79 59.7695 171.79 59.335V57.318C171.722 56.8525 171.35 56.5111 170.876 56.5111Z" fill="#333333"/>
<path d="M157.582 41.4274C152.236 29.325 143.135 18.9914 131.362 11.6059C119.284 4.0031 105.142 0 90.4246 0C66.0992 0 43.5669 11.0783 30.1016 29.6353C29.9663 29.8215 29.9325 30.1008 30.0001 30.318C30.1016 30.5663 30.2708 30.7215 30.5415 30.8146L32.4361 31.4042C32.5376 31.4352 32.6729 31.4662 32.7744 31.4662C33.1127 31.4662 33.451 31.3111 33.654 31.0318C39.8453 22.7153 48.2019 15.7641 57.8441 10.9852C67.7908 6.0512 79.0908 3.4135 90.4585 3.4135C104.228 3.4135 117.49 7.13731 128.824 14.1815C139.887 21.0395 148.515 30.6284 153.691 41.8929C153.86 42.2342 154.199 42.4515 154.605 42.4515H156.871C157.142 42.4515 157.379 42.3273 157.514 42.1412C157.683 41.8929 157.683 41.6446 157.582 41.4274Z" fill="url(#paint0_radial_1246_624)"/>
<defs>
<radialGradient id="paint0_radial_1246_624" cx="0" cy="0" r="1" gradientUnits="userSpaceOnUse" gradientTransform="translate(155.39 42.3637) scale(121.812 111.728)">
<stop stop-color="#444444"/>
<stop offset="1" stop-color="#444444" stop-opacity="0"/>
</radialGradient>
</defs>
</svg>
