<svg width="121" height="22" viewBox="0 0 121 22" fill="none" xmlns="http://www.w3.org/2000/svg">
<path d="M11.9512 6.65315H19.6105V21.5911H12.0743V14.879L7.65929 21.5911H0V6.65315H7.5362L7.51616 13.3244L11.9512 6.65315Z" fill="white"/>
<path d="M78.8906 13.8816L76.0194 6.65315H66.7991L60.885 21.5911H68.5443L69.0987 20.0156H73.7399L74.2943 21.5911H77.6654L78.8906 13.8816ZM70.3515 15.4324L71.4193 12.0759L72.487 15.4324H70.3515Z" fill="white"/>
<path d="M101.985 12.7111V6.6541H121V12.7111H115.517V21.5921H107.509V12.7111H101.985Z" fill="white"/>
<path d="M92.0403 6.65315L87.6052 13.3244L87.6253 6.65315H82.4364L80.0623 21.5911H87.7484L92.1634 14.88V21.5911H99.7005V6.65315H92.0403Z" fill="white"/>
<path d="M96.4553 4.36444H84.9087L85.6024 0H97.149L96.4553 4.36444Z" fill="white"/>
<path d="M38.9491 21.5911L41.3193 6.67883V6.65315H33.3719V11.2781H29.8814V6.65315H21.934V21.5911H29.8814V16.9671H33.3719V21.5911H38.9491Z" fill="white"/>
<path d="M51.1418 16.5231H50.0569C48.7267 16.5231 47.6475 15.4486 47.6475 14.1221C47.6475 12.7966 48.7258 11.7212 50.0569 11.7212H51.1418C52.1503 11.7212 53.0139 12.3393 53.3727 13.215H61.0596C60.5797 8.88291 57.5625 6.24333 50.6122 6.24333C47.5712 6.24333 45.2315 6.8167 43.5397 7.79418L41.7544 19.0248C43.3985 20.8495 46.3002 22 50.6122 22C57.5625 22 60.5797 19.3604 61.0596 15.0283H53.3727C53.0139 15.904 52.1503 16.5221 51.1418 16.5221V16.5231Z" fill="white"/>
</svg>
